# xmcd
#
# Track frame offsets: 
#        150
#        20742
#        40410
#        70863
#        89481
#        102744
#        115961
#        133934
#        148385
#        169194
#        185121
#
# Disc length: 2727 seconds
#
# Revision: 0
# Processed by: cddbd v1.5.1PL2 Copyright (c) Steve Scherf et al.
# Submitted via: ExactAudioCopy v0.95b3
#
DISCID=b30aa50b
DTITLE=Last Fair Deal - Acoustic Blues
DYEAR=2002
DGENRE=Acoustic
TTITLE0=If I had posession
TTITLE1=Cannot keep from crying
TTITLE2=Driftin' and driftin'
TTITLE3=Hard times
TTITLE4=Mind your own business
TTITLE5=Talking about your woman
TTITLE6=When I first met that girl
TTITLE7=Hand it over
TTITLE8=Sundown blues
TTITLE9=Mojo boogie
TTITLE10=Come on in my kitchen
EXTD=
EXTT0=
EXTT1=
EXTT2=
EXTT3=
EXTT4=
EXTT5=
EXTT6=
EXTT7=
EXTT8=
EXTT9=
EXTT10=
PLAYORDER=
